<svg viewBox="0 0 363 794" fill="none" xmlns="http://www.w3.org/2000/svg">
  <defs>
		<style type="text/css">
			.map-land
			{
				fill: #CCCCCC;
				fill-opacity: 1;
				stroke:white;
				stroke-opacity: 1;
				stroke-width:0.5;
			}
		</style>
  </defs>

  <g>
    <path
      id="AR-B"
      data-title="Buenos Aires"
      class="map-land map-center"
      d="M274.73 262.63L275.5 263.35L276.55 263.66L276.96 264.69L279.05 266.52L285.86 269.46L292.35 273.77L295.27 276.16L297.94 279.8L299.13 282.08L299 283.11L294.54 290.01L294.33 291.11L294.53 294.05L295.73 297L296.97 298.86L300.39 301.9L302.56 303.12L305.52 301.7L305.97 301.94L306.82 304.03L307.32 307.89L307.51 314.46L307.19 315.59L304.61 319.18L299.87 327.57L298.03 330.01L295.39 332.6L292.6 336.18L291.74 338.63L291.57 339.82L291.84 340.64L291.71 342.02L291.37 342.66L289.68 344.31L286.22 346.78L279.83 350.32L277.8 351.2L269.36 353.85L264.56 355.95L256.18 357.72L250.84 359.34L248.68 359.51L232.11 362.49L227.21 363.02L223.29 362.92L221.85 362.66L219.14 363.42L214.11 362.79L210.39 361.79L209.2 361.16L208.77 359.96L207.04 358.85L204.44 358.24L203.84 358.53L203.66 358.94L204.18 360.34L205.77 362.08L204.72 364.93L204.49 367L204.89 369.15L207.82 369.76L209.51 370.71L210.38 371.61V372.12L209.8 372.68L208.37 371.73L207.36 370.29L206.13 370.45L205.85 370.97L208.17 373.19L209.58 374.94L208.7 382.64L207.69 383.2L206.07 382.84L205.22 383.94L204.63 386.81L204.7 389.42L204.45 390.69L204.14 391.41L203.17 391.97L201.97 393.62L203.19 397.3L205.45 399.65L205.99 399.67L206.34 400.7L206.06 401.43L205.24 401.4L204.73 400.84L204.7 402.37L204.91 402.54L206.12 401.75L207.29 401.35L207.21 401.86L206.74 402.14L205.02 406.99L197.67 411.32L196.86 411.33L194.42 407.4L192.66 405.61L190.56 404.23L185.81 403.3L185.68 370.68L185.76 272.78L185.8 259.12L195.36 259.18L216.07 259.07L230.26 243.03L230.08 242.3L230.41 241.47L231.72 241.09L234.89 241.68L236.82 243.1L238.38 242.76L239.34 240.82L239.52 239.32L241.93 236.05L242.15 235.25L241.72 234.76L243 235.55L245.72 238.36L249.7 240.71L250.83 242.04L252.02 242.91L254.26 243.98L255.72 243.31L257.68 245.23L260.91 246.5L263.35 247.16L264.59 247.21L269.97 250.71L271.39 251.92L272.45 252.06L273.85 251.29L275.16 251.09L276.09 251.58L276.3 251.96L276.44 254.91L275.41 256.57L274.66 257.01L274.23 257.99L274.73 262.63ZM212.72 368.77L209.68 366.98L209.04 365.7L209.11 365.14L212.78 366.37L213.33 368.18L213.26 368.58L212.72 368.77Z"
    />
    <path
      id="AR-K"
      data-title="Catamarca"
      class="map-land map-north"
      d="M153.39 122.75L155.01 130.09L155.15 133.01L155.01 134.5L153.18 136.89L153.21 137.97L154.2 138.4L154.64 138.89L154.82 139.68L155.17 146.17L155.77 151.04L156.57 153L158.58 156.61L157.06 156.98L157.77 162.92L154.14 167.04L144.17 155.1L142.8 153.15L142.64 151.19L141.76 149.72L136.17 144.53L131.86 142.2L131.44 141.43L131.21 139.07L129.34 134.78L128.5 133.79L120.79 130.47L119.85 130.3L119.35 130.49L118.31 131.65L117.02 131.8L113.64 131.42L113 130.63L111.2 129.45L110.67 129.47L108.71 132.25L107.68 132.39L105.89 131.94L104.99 131.54L104.14 130.43L103.65 129.63L103.31 127.88L101.79 127.25L99.6099 126.94L95.4699 124.85L94.6499 124.86L94.0499 124.37L94.0099 121.29L94.3399 120.13L94.3099 119.56L94.0199 119.27L90.2999 119.48L86.2899 120.43L81.8199 119.99L82.6699 117.07L85.7499 111.65L86.3599 109.92L86.2099 109.14L86.41 108.52L87.4899 106.68L88.7299 106.37L89.5199 106.5L90.41 107.08L94.66 105.62L96.2599 104.75L96.8999 102.52L94.2099 98.15L92.3099 95.89L91.5399 94.3L91.5899 91.82L91.8899 90.25L94.8699 87.34L93.1799 79L92.0899 76.49L91.2499 73.63L91.7399 71.08L92.7899 68.14L93.3099 67.42L105.61 69.83L127.97 69.54L128.49 70L129.83 73.79L129.37 76.38L127.84 77.53L124.89 77.66L123.79 78.57L123.55 80.28L123.9 81.68L127.12 86.09L129.09 90.02L130.77 91.75L131.53 91.9L131.8 91.6L132.98 88.97L133.47 88.74L135.57 88.76L135.43 89.71L134.39 92.15L134.45 95.17L137.92 96.13L140.73 98.27L141.05 99.06L140.51 102.98L135.76 108.9L134.92 110.88L136.57 111.33L138.6 112.98L139.65 117.65L141.33 120.51L141.86 120.6L142.58 120.23L143.78 120.96L144.43 123.52L146.21 125.62L147.31 123.95L150.26 121.72L152.11 122.98L153.39 122.75Z"
    />
    <path
      id="AR-H"
      data-title="Chaco"
      class="map-land map-north"
      d="M267.72 124.58L216.04 124.6L215.94 77.38L185.46 77.33L204.74 52.18L204.64 46.72L210.96 49.61L212.61 50.72L214.11 51.08L216.21 52.5L217.08 54L218.92 54.89L220.71 56.64L224.66 57.29L225.2 57.63L226.25 59.08L227.04 60.97L228.07 62.1L232.37 65.57L237.86 68.28L239.87 71.06L242.72 74.03L242.98 75.85L243.74 77.47L246.54 78.75L249.46 80.52L252.48 84.42L253.08 86.77L257.42 87.71L258.08 90.35L258.77 90.95L260.12 91.14L261.29 90.74L265.57 91.99L267.48 94.2L271.15 96.97L274.82 100.85L276.85 101.96L276.1 102.42L274.71 104.02L272.76 106.76L271.87 106.93L271.43 107.49L271.4 108.19L272.39 109.32L272.29 110.7L269.77 112.08L267.81 113.89L268.43 119.15L267.72 124.58Z"
    />
    <path
      id="AR-U"
      data-title="Chubut"
      class="map-land map-south"
      d="M36.09 534.72L36.82 534.14L36.38 532.23L36 531.71L34.12 530.82L33.42 527.71L34.18 523.31L34.86 522.8L36.79 522.38L39.31 521.22L42.36 516.79L41.81 514.89L38.75 510.91L37.83 508.96L37.22 508.35L34.35 507.38L28.45 506.47L28.29 503.03L28.8 502.71L30.54 503.45L32.54 503.69L33.8 502.75L35.93 503.44L38.87 502.45L41.08 503.79L42.74 503.83L43.68 502.53L43.57 500.41L44.33 498.6L45.15 498.46L45.57 498.01L45.8 497.16L44.84 495.04L44.23 494.5L40.51 493.75L37.89 493.99L33.67 493.94L32.78 493.75L32.32 493.04L32.51 492.53L33.33 491.93L33.39 489.09L32.95 487.75L33.66 485.78L36.06 482.12L36.02 481.57L33.14 477.74L33.15 477.02L35.04 475.89L35.27 475.32L35.06 473.71L30.83 470.02L30.93 468.37L31.55 466.83L34.37 466.15L34.38 463.14L32.64 462.07L29.67 461.79L28.7 461.37L28.24 460.98L27.18 458.93L27.81 455.21L27.65 451.91L27.14 448.72L28.85 443.29L27.3 441.25L29.34 437.56L29.77 437.33L30.35 437.45L30.79 438.5L31.34 438.59L33.7 437.48L34.61 436.62L34.52 435.02L34.01 434.3L154.04 434.29L155.32 434.55L156.56 437.03L158.68 438.91L163.63 440.56L164.8 440.29L166.15 440.77L164.89 442.17L163.68 444.23L163.78 444.89L166.38 445.17L172.51 444.82L173.71 443.51L173.75 441.87L173.42 441.09L172.56 440.63L169.26 440.68L168.62 440.3L169.2 439.9L171.64 439.42L174.32 438.33L176.88 436.8L179.08 436.49L179.41 436.74L180.5 439.59L181.51 440.95L182.05 442.39L182.18 449.31L181.29 452.99L180.28 454.25L179.69 454.48L172.78 456.04L172.08 455.65L170.07 453.25L170.02 452.62L170.96 450.06L168.49 447.49L166.34 446.67L163.36 446.97L161.26 447.95L160.47 449.06L159.7 449.65L157.74 450.12L157.29 450.45L156.11 452.48L156.28 453.32L156.64 453.72L159.97 454.88L163.2 457.11L167.06 458.23L168.73 457.6L169.19 458.57L167.46 459.91L163.85 461.67L161.81 462.08L160.07 462.77L157.72 464.62L155.84 466.49L154.05 470.16L151.83 472.98L150.53 475.21L150.36 476.58L150.72 479.34L151.31 480.58L151.77 482.91L152.64 482.62L152.31 486.46L151.13 486.97L150.79 488.37L151.93 491.54L150.31 494.44L149.43 496.82L145.64 499.22L144.87 500.03L143.97 501.65L143.42 503.27L143.54 504.63L146.72 506.23L145.38 509.5L143.98 510.06L142.87 509.26L141.19 508.63L136.31 507.99L135.03 508.07L128.96 511.13L128.07 513L125.92 514.05L122.88 514.41L121.19 515.48L120.4 516.19L116.93 522.48L114.82 524.29L114.45 524.89L113.32 529.43L110.5 532.88L109.64 534.74L36.09 534.72Z"
    />
    <path
      id="AR-X"
      data-title="Córdoba"
      class="map-land map-center"
      d="M154.88 272.78L154.91 250.88L154.09 233.6L156.34 229.24L158.59 221.13L158.74 219.7L158.01 214.56L157.48 214.07L155.43 214.64L152.91 214.8L151.94 210.32L150.84 209.1L144.93 205.55L142.69 205.43L142.55 188.02L146.98 174.14L147.59 173.36L149.17 168.72L153.8 167.4L154.14 167.04L157.77 162.92L157.06 156.98L158.58 156.61L169.66 153.78L173.77 155.05L173.75 155.71L174.44 156.68L177.89 158.49L179.61 158.61L181.81 158.28L183.58 158.67L184.4 159.07L185.25 159.97L185.6 161.04L189.15 161.25L206.11 161L209.21 169.06L208.25 175.21L207.48 175.26L207.36 177.57L210.67 179.9L213.56 181.02L208.4 200.27L206.36 201.99L206.94 206.13L206.85 210.76L208.22 212.37L209.55 213.31L210.19 215.63L212.38 217.77L213.82 222.3L215.48 224.93L215.64 225.68L215.15 228.87L214.27 230.48L213.42 231.01L212.7 231.02L211.96 232.07L195.32 259.19L185.76 259.12L185.72 272.78H154.88Z"
    />
    <path
      id="AR-W"
      data-title="Corrientes"
      class="map-land map-north"
      d="M253.34 172.84L252.99 171.47L254.81 166.24L254.74 165.46L253.43 163.68L253.17 162.8L254.34 158.19L254.53 153.8L256.27 149.95L258.43 148.95L261.52 145.74L263.6 137.52L264.07 133.28L263.87 128.25L264.44 127.46L265.15 127.11L266.17 127.2L267.1 126.59L267.72 124.58L268.43 119.15L267.81 113.89L269.77 112.08L272.29 110.7L274.08 110.12L280.41 109.72L287.02 110.2L288.14 110.5L290.18 111.81L293.87 112.74L295.98 113.01L297.6 113.84L299.15 114.21L299.95 114.25L302.87 112.77L303.52 112.78L305.11 114.2L306.22 114.52L307.28 113.63L308.47 113.36L309.51 113.45L310.34 113.91L311.2 115.37L311.89 115.93L312.85 116.13L314.49 113.77L314.61 112.17L316.86 110.58L318.82 110.46L320.1 111L319.52 111.42L319.12 113.2L319.3 114.02L320.72 116.45L321.99 119.39L322.48 123L323.97 125.65L326.24 127.47L325.29 128.59L324.03 129.03L323.63 129.41L323.68 129.83L325.25 130.77L325.49 131.45L324.95 132.93L324.31 132.02L322.49 131.81L321.41 132.15L319.85 134.58L319.27 136.07L318.27 137.41L316.39 139.51L314.48 140.5L314.12 140.93L314 141.64L311.73 146.53L310.14 147.01L308.74 148L307.8 149.23L307.6 150.53L306.86 152.18L300.54 159.69L299.47 160.86L298.73 161.16L297.23 161.24L296.28 161.76L295.58 163.21L295.46 165.35L292.54 168.55L291.32 169.4L290.34 169.65L289.95 170.76L289.92 172.03L289.24 173.2L285.37 176.55L285.24 178.29L286.03 179.22L286.75 181.43L285.65 180.66L283.38 178.29L281.1 173.88L279.08 171.01L277.96 170.41L272.86 169.05L270.84 169.2L269.09 170.16L267.46 170.55L264.64 170.09L262.82 171.31L262.41 171.97L260.79 172.91L257.94 172.17L255.86 172.3L254.79 172.76L253.34 172.84Z"
    />
    <path
      id="AR-E"
      data-title="Entre Ríos"
      class="map-land map-center"
      d="M241.68 234.76L240.72 233.39L237.32 231.6L234.55 226.07L234.23 224.86L233.59 220.87L233.53 218.3L234.72 214.74L234.18 211.23L235.25 202.31L235.64 201.89L236.33 201.68L239.17 201.35L240.73 199.92L244.39 195.68L246.39 191.59L247.24 190.98L251.76 184.05L254.52 179.16L254.69 178.08L254.57 174.82L253.34 172.84L254.79 172.76L255.86 172.3L257.94 172.17L260.79 172.91L262.41 171.97L262.82 171.31L264.64 170.09L267.46 170.55L269.09 170.16L270.84 169.2L272.86 169.05L277.96 170.41L279.08 171.01L281.1 173.88L283.38 178.29L285.65 180.66L286.75 181.43L286.92 184.27L284.68 192.42L283.16 195.52L282.01 196.2L281.81 196.75L283.43 198.28L283.58 199.79L282.51 203.38L282.09 203.88L280.3 204.49L279.62 205.62L280.6 207.71L280.5 209.27L279.94 211.2L280.29 212.04L281.4 213.28L281.48 214.13L281.4 214.79L280.52 215.73L279.39 217.75L279.17 218.98L280.52 228.03L280.59 230.21L279.83 231.19L275.94 230.98L275.53 231.33L275.51 234.87L274.99 236.46L274.05 238.05L273.61 240.38L273.33 245.13L273.6 245.89L274.79 247.56L275.26 250.44L275.12 251.08L273.81 251.29L272.41 252.06L271.35 251.92L269.93 250.71L264.56 247.21L263.31 247.15L260.87 246.49L257.64 245.23L255.68 243.31L254.22 243.98L251.98 242.91L250.79 242.04L249.66 240.72L245.68 238.37L242.96 235.56L241.68 234.76Z"
    />
    <path
      id="AR-P"
      data-title="Formosa"
      class="map-land map-north"
      d="M204.64 46.72L204.61 14.41L206.25 15.48L207.99 19.99L210.32 22.78L210.96 24.86L212.26 26.09L213.41 26.51L215.18 28.11L215.42 29.34L216.74 30.36L218.14 30.57L220.74 32.95L223.56 34.34L226.89 36.68L228.71 40.67L231.16 41.43L235.9 42.31L236.56 43.33L241.95 45.15L244.07 45.22L246.33 44.58L256.6 51.4L258.99 54.05L265.31 57.34L268.61 59.85L271.11 60.66L273.59 60.88L275.1 61.4L276.86 63.55L279.95 63.7L282.16 64.87L285.43 65.88L287.57 67.6L288 68.83L289.17 70.04L289.91 71.88L291.28 72.95L290.91 75.13L287.79 78.84L286.67 79.6L286.76 80.8L285.04 83.25L285.78 84.11L283.19 86.24L282.37 86.54L280.62 88.3L280.86 89.31L279.44 92.59L279.31 95.02L280.19 96.2L279.95 97.34L277.51 101.71L276.85 101.96L274.82 100.85L271.15 96.97L267.48 94.2L265.57 91.99L261.29 90.74L260.12 91.14L258.77 90.95L258.08 90.35L257.42 87.71L253.08 86.77L252.48 84.42L249.46 80.52L246.54 78.75L243.74 77.47L242.98 75.85L242.72 74.03L239.87 71.06L237.86 68.28L232.37 65.57L228.07 62.1L227.04 60.97L226.25 59.08L225.2 57.63L224.66 57.29L220.71 56.64L218.92 54.89L217.08 54L216.21 52.5L214.11 51.08L212.61 50.72L210.96 49.61L204.64 46.72Z"
    />
    <path
      id="AR-Y"
      data-title="Jujuy"
      class="map-land map-north"
      d="M153.01 7.1L152.17 9.61L152.14 11.4L150.31 15.27L150.4 16.23L152.18 23.53L153.05 24.42L155.64 24.65L156.3 25.67L156.17 27.62L155.65 29.45L155.84 30.03L157.22 30.66L158.5 33.27L158.6 34.15L159.88 34.69L161 33.86L162.38 33.55L164.51 34.66L165.98 36.32L167.31 35.52L167.84 34.63L171.28 34.7L171.7 47.9L171.32 49.28L169.09 52.41L167.13 52.79L165.09 54.13L164.37 54.85L163.35 56.55L159.72 53.33L159.05 54.14L158.06 56.2L155.75 55.49L154.25 54.39L151.3 54.29L146.83 53.01L145.86 52.4L142.93 48.18L142.7 47.35L142.82 46.23L142.55 45.72L140.42 44.12L139.87 43.98L139.16 44.33L138.35 43.37L137.86 41.68L137.93 39.97L138.6 38.9L138.44 35.16L135.26 32.99L132.27 31.98L131.62 32.21L130.97 34.88L131.64 37.67L131.49 39.97L129.34 46.86L128.89 47.54L125.89 47.04L122.76 45.6L118.94 41.23L117.74 40.85L115.68 39.14L117.49 32.43L120.21 24.81L116.9 21.27L117.97 19.27L120 17.61L119.82 15.45L124.31 13.56L124.99 9.68L125.86 9.07L127.17 8.99L132.08 7.53L132.78 6.75L134.3 1L136.93 2L139.68 3.97L141.73 6.65L142.87 7.4L153.01 7.1Z"
    />
    <path
      id="AR-L"
      data-title="La Pampa"
      class="map-land map-center"
      d="M185.64 370.68L184.6 370.75L183.5 370.41L176.72 365.44L174.82 363.63L171.65 361.81L169.93 360.98L166.29 359.78L164.66 359.7L160.02 358.84L155.77 358.52L153.45 358.57L151.88 359.08L149.68 359.38L148.79 358.71L146.31 358.02L145.81 358.05L144.27 358.95L138.54 357.01L133.87 356.62L131.42 357.14L128.16 356.19L127.58 354.04L126.3 352.69L123.94 351.52L120.79 350.5L118.84 349.35L117.75 347.99L117.12 345.29L115.68 344.99L113.75 345.93L110.36 346.16L108.52 344.73L107.74 342.9L107.03 341.97L106.05 341.55L105.25 341.68L104.47 340.72L104.34 339.13L104.53 338.39L105.5 337.35L106.71 336.68L107.32 335.32L107.36 334.25L107.06 333.35L105.75 331.47L103.71 330.63L97.59 330.14L97.62 298.52H96.77L96.87 294.86L127.16 294.89L154.86 294.94L154.88 272.78H185.72L185.64 370.68Z"
    />
    <path
      id="AR-F"
      data-title="La Rioja"
      class="map-land map-north"
      d="M154.14 167.04L153.8 167.4L149.17 168.72L147.59 173.36L146.98 174.14L142.55 188.02L142.69 205.43L140.7 205.85L139.64 205.72L138.18 205.04L136.54 205.32L134.19 206.33L131.76 206.52L127.89 206.12L126.39 205.44L125.11 205.24L124.36 203.39L122.91 200.92L120.94 199.5L119.41 197.96L118.27 194.26L119.14 188.48L117.89 187.51L118.75 184.54L117.03 181.14L116.58 180.57L115.56 180.09L113.37 177.09L109.96 173.69L109.53 171.98L108.89 171.11L103.91 167.11L101.92 165.14L101.43 163.97L96.42 159.84L93.6 158.55L89.63 157.54L87.25 158.2L84.4 158.25L83.76 158.02L83.59 156.23L84.89 149.04L85.45 148.96L85.74 148.54L85.98 147.23L85.55 143.7L82.01 140.13L81.17 137.26L77.7 134.38L76.01 134.1L72.13 132.79L74.36 131.01L77.65 127.17L78.64 124.53L80.5 123.99L81.19 122.61L81.82 119.99L86.29 120.43L90.3 119.48L94.02 119.27L94.31 119.56L94.34 120.13L94.01 121.29L94.05 124.37L94.65 124.86L95.47 124.85L99.61 126.94L101.79 127.25L103.31 127.88L103.65 129.63L104.14 130.43L104.99 131.54L105.89 131.94L107.68 132.39L108.71 132.25L110.67 129.47L111.2 129.45L113 130.63L113.64 131.42L117.02 131.8L118.31 131.65L119.35 130.49L119.85 130.3L120.79 130.47L128.5 133.79L129.34 134.78L131.21 139.07L131.44 141.43L131.86 142.2L136.17 144.53L141.76 149.72L142.64 151.19L142.8 153.15L144.17 155.1L154.14 167.04Z"
    />
    <path
      id="AR-M"
      data-title="Mendoza"
      class="map-land map-center"
      d="M58.2 297.92L58.71 296.57L58.43 292.5L59.09 291.17L59.66 290.68L58.31 286.76L58.57 286.31L58.71 284.11L58.24 280.77L55.92 279.28L55.65 278.07L56.1 277.36L57.72 277.1L58.98 276.46L59.31 275.92L59.37 272.67L61.67 265.31L63.17 262.46L65.06 259.58L65.02 257.08L66.14 256.73L67.91 256.92L69.19 255.97L67.61 246.04L68.25 241.21L69.96 237.57L69.44 235.24L67.65 234.34L67.2 234.42L66.33 235.6L65.88 235.66L64.16 233.09L64.35 230.89L64.08 230.35L65.5 228.14L66.01 226.57L65.07 226.1L63.26 224.06L62.79 221.25L63.23 218.65L61.46 214.46L62.95 214.15L66.36 214.37L68.96 213.6L71.92 213.38L72.54 212.85L72.61 210.99L73.16 210.31L75.99 208.95L76.82 208.89L79.46 207.81L80.66 206.94L81.75 207.29L82.99 209.09L83.66 209.59L85.24 209.37L86.27 209.62L88.35 210.91L91.87 211.83L93.04 211.71L93.38 211.24L93.63 209.65L94.09 209.31L95.75 209.93L98.01 210.16L101.71 209.31L102.67 210.01L103.25 211.31L105.02 212.87L108.05 213.5L109.86 213.35L111.59 213.95L113.69 216.35L114.22 216.81L114.8 218.34L115.71 222.33L116.63 224.48L116.16 227.79L116.66 228.78L116.94 233.23L116.74 233.94L117.45 238.51L120.57 244.65L121.28 246.92L121.73 247.57L122.82 248.33L124.45 251.06L124.84 252.71L124.59 254.36L123.42 256L123.64 259.36L124.87 264.07L127.61 268.58L128.54 271.35L129.14 275.55L129.16 280.59L128.85 284.01L126.82 294.21L127.16 294.89L96.87 294.86L96.77 298.52H97.62L97.59 330.14L95.98 329.84L93.6 328.74L88.15 325.69L86.28 326.07L84.05 325.44L83.52 324.96L83.17 323.35L82.57 322.26L79.29 320.76L76.87 320.97L75.68 321.36L74.12 321.19L72.55 320.77L70.94 319.66L69.3 317.38L69.81 315.61L69.65 313.93L67.54 312.7L66.78 310.78L64.56 308.52L62.96 307.9L61.93 306.2L61.08 303.05L60.71 302.91L59.65 303.28L59.24 302.76L58.99 301.12L59.32 300.65L59.41 299.51L59.12 298.69L58.2 297.92Z"
    />
    <path
      id="AR-N"
      data-title="Misiones"
      class="map-land map-north"
      d="M320.1 111L321.42 111.01L322.28 112.51L323.86 113.23L324.33 113.13L326.71 111.21L327.28 109.46L327.05 108.63L327.2 107.65L327.66 106.55L330.02 104L333.03 102.99L335.23 101.71L336.57 100.3L338.25 99.9L338.87 97.98L339.82 97.32L340.44 97.36L343.14 92.74L343.76 89.88L343.6 88.94L344.08 88.45L344.11 87.91L343.72 87.31L343.73 83.67L344.75 83.02L344.4 77.11L344.85 75.61L345.8 75.55L347.5 76.8L348.74 75.76L350.02 75.25L352.48 75.38L353.75 74.07L357.71 76.82L358.86 80.17L358.83 83.17L361.77 88.03L362.03 89.16L361.69 90.37L360.92 91.46L360.96 94.41L360.48 98.14L361.15 101.91L359.18 106.89L358.61 107.74L358.27 107.3L355.59 108.15L354.41 109.71L353.63 110.17L353.06 110.15L350.62 112.88L349.21 113.54L346.1 114.23L343.27 115.53L341.72 115.73L341.39 115.51L341.34 115.08L340.96 115.13L339.42 117.87L339.24 119.09L337.19 121.2L334.33 121.66L331.76 123L330.8 124.05L330.69 125.12L329.47 126.36L326.24 127.47L323.97 125.65L322.48 123L321.99 119.39L320.72 116.45L319.3 114.02L319.12 113.2L319.52 111.42L320.1 111Z"
    />
    <path
      id="AR-Q"
      data-title="Neuquén"
      class="map-land map-south"
      d="M35.4201 376.32L35.7001 376.31L36.4501 377.37L36.9201 377.59L38.5901 377.5L38.8501 377.07L39.6201 373.24L40.4701 370.79L40.7501 368.69L40.1301 364.02L40.1901 362.19L40.6401 361.1L41.7201 360.22L46.8101 357.28L49.1601 357.1L50.2701 355.93L50.8601 353.57L50.9301 352.83L50.6001 352.04L48.6801 350.41L48.2901 349.59L47.5301 345.27L47.8001 341.66L45.5301 336.34L44.5201 333.12L44.5901 331.52L45.5401 330.65L45.8001 327.72L44.7501 325.9L44.2201 324.16L44.4601 323.4L45.0901 322.66L45.7301 319.91L44.4001 313.83L47.1501 305.7L47.4701 305.52L48.6301 305.77L53.0801 304.15L53.2701 303.62L52.8701 302.57L53.1201 300.92L55.2201 298.56L57.4201 298.55L58.2001 297.92L59.1201 298.69L59.4101 299.51L59.3201 300.65L58.9901 301.12L59.2401 302.76L59.6501 303.28L60.7101 302.91L61.0801 303.05L61.9301 306.2L62.9601 307.9L64.5601 308.52L66.7801 310.78L67.5401 312.7L69.6501 313.93L69.8101 315.61L69.3001 317.38L70.9401 319.66L72.5501 320.77L74.1201 321.19L75.6801 321.36L76.8701 320.97L79.2901 320.76L82.5701 322.26L83.1701 323.35L83.5201 324.96L84.0501 325.44L86.2801 326.07L88.1501 325.69L93.6001 328.74L95.9801 329.84L97.5901 330.14L97.5101 362.4L93.3901 364.5L92.2801 364.77L91.0001 365.89L89.8001 368.25L87.5101 370.11L85.0701 374.15L82.9901 375.33L81.6201 375.41L79.3901 376.85L77.6601 379.68L75.5101 381.5L70.2901 383.4L66.9001 385.19L66.1301 386.41L65.7101 387.75L66.0701 389.08L66.0501 390.8L64.7301 394.83L62.6201 397.69L58.8801 398.87L56.7101 398.32L55.2401 399.06L54.1501 400.12L51.3001 400.37L50.0201 400.92L48.2001 402.02L46.0201 403.97L45.7301 405.27L46.7901 406.67L47.1601 408.38L46.6301 409.67L45.0001 411.57L43.4901 412.33L42.0101 412.49L40.7901 412.24L38.1301 411.05L32.2101 410.48L32.5901 409.15L32.3701 408.12L30.5601 403.7L32.2101 401.71L32.5701 400.7L32.6001 399.06L33.6501 396.15L34.4401 396.59L34.8101 396.49L35.7501 394.38L35.6601 393.49L35.0401 393.07L34.7401 393.62L33.4401 392.28L32.9601 391.31L33.4401 389.2L35.6901 387.6L36.3001 385.32L35.0001 380.08L34.9301 377.72L35.4201 376.32Z"
    />
    <path
      id="AR-R"
      data-title="Río Negro"
      class="map-land map-south"
      d="M34.01 434.3L33.5 430.94L31.21 425.88V425.19L32.38 423.4L32.06 420.59L31.49 418.76L32.17 416L32.55 411.62L32.21 410.48L38.13 411.05L40.79 412.24L42.01 412.49L43.49 412.33L45 411.57L46.63 409.67L47.16 408.38L46.79 406.67L45.73 405.27L46.02 403.97L48.2 402.02L50.02 400.92L51.3 400.37L54.15 400.12L55.24 399.06L56.71 398.32L58.88 398.87L62.62 397.69L64.73 394.83L66.05 390.8L66.07 389.08L65.71 387.75L66.13 386.41L66.9 385.19L70.29 383.4L75.51 381.5L77.66 379.68L79.39 376.85L81.62 375.41L82.99 375.33L85.07 374.15L87.51 370.11L89.8 368.25L91 365.89L92.28 364.77L93.39 364.5L97.51 362.4L97.59 330.14L103.71 330.63L105.75 331.47L107.06 333.35L107.36 334.25L107.32 335.32L106.71 336.68L105.5 337.35L104.53 338.39L104.34 339.13L104.47 340.72L105.25 341.68L106.05 341.55L107.03 341.97L107.74 342.9L108.52 344.73L110.36 346.16L113.75 345.93L115.68 344.99L117.12 345.29L117.75 347.99L118.84 349.35L120.79 350.5L123.94 351.52L126.3 352.69L127.58 354.04L128.16 356.19L131.42 357.14L133.87 356.62L138.54 357.01L144.27 358.95L145.81 358.05L146.31 358.02L148.79 358.71L149.68 359.38L151.88 359.08L153.45 358.57L155.77 358.52L160.02 358.84L164.66 359.7L166.29 359.78L169.93 360.98L171.65 361.81L174.82 363.63L176.72 365.44L183.5 370.41L184.6 370.75L185.64 370.68L185.77 403.31L190.52 404.24L192.62 405.62L194.37 407.41L196.81 411.34L191.57 413.89L178.64 414.16L176.83 413.31L175.83 412.22L174.68 411.48L171.86 410.69L169.15 409.24L161.47 406.21L160.48 403.8L158.09 403.22L156.75 403.62L154.09 406.49L153.2 409.99L153.52 412.95L155.25 420.77L156.38 422.04L156.6 422.63L155.94 426.69L156.55 428.69L155.15 432.53L155.01 433.28L155.32 434.55L154.04 434.29L34.01 434.3Z"
    />
    <path
      id="AR-A"
      data-title="Salta"
      class="map-land map-north"
      d="M185.46 77.33L175.93 77.19L171.01 75.57L166.8 84.82L165.75 88.57L161.86 88.66L159.96 88.41L158.16 89.55L157.57 89.69L151.52 87.5L150.81 85.72L150.33 85.62L148.45 86.58L144.43 85.64L144.09 86L143.77 89.73L143.4 90.21L138.52 89.49L135.57 88.76L133.47 88.74L132.98 88.97L131.8 91.6L131.53 91.9L130.77 91.75L129.09 90.02L127.12 86.09L123.9 81.68L123.55 80.28L123.79 78.57L124.89 77.66L127.84 77.53L129.37 76.38L129.83 73.79L128.49 70L127.97 69.54L105.61 69.83L93.31 67.42L94.5 67.23L95.67 66.6L93.05 62.1L92.18 61.6L91.77 60.48L91.83 59.86L92.91 57.64L95.04 54.35L95.49 54.07L96.33 54.21L97.52 52.26L114.14 44.82L115.68 39.14L117.74 40.85L118.94 41.23L122.76 45.6L125.89 47.04L128.89 47.54L129.34 46.86L131.49 39.97L131.64 37.67L130.97 34.88L131.62 32.21L132.27 31.98L135.26 32.99L138.44 35.16L138.6 38.9L137.93 39.97L137.86 41.68L138.35 43.37L139.16 44.33L139.87 43.98L140.42 44.12L142.55 45.72L142.82 46.23L142.7 47.35L142.93 48.18L145.86 52.4L146.83 53.01L151.3 54.29L154.25 54.39L155.75 55.49L158.06 56.2L159.05 54.14L159.72 53.33L163.35 56.55L164.37 54.85L165.09 54.13L167.13 52.79L169.09 52.41L171.32 49.28L171.7 47.9L171.28 34.7L167.84 34.63L167.31 35.52L165.98 36.32L164.51 34.66L162.38 33.55L161 33.86L159.88 34.69L158.6 34.15L158.5 33.27L157.22 30.66L155.84 30.03L155.65 29.45L156.17 27.62L156.3 25.67L155.64 24.65L153.05 24.42L152.18 23.53L150.4 16.23L150.31 15.27L152.14 11.4L152.17 9.61002L153.01 7.10002L156.66 7.02002L157 7.35002L161.6 8.80002L162.18 8.67002L163.83 9.40002L164.66 10.33L165.03 13.21L166.2 15.27L166.52 16.55L166.36 17.8L167.99 19.61L168.44 22.21L168.83 22.03L169.1 21.48L169.49 17.83L169.98 16.31L170.52 15.24L172.27 13.24L175.63 5.28002L195.99 5.21002L196.29 5.59002L196.44 7.50002L196.93 8.27002L199.13 9.90002L201.35 12.47L203.68 14.15L204.61 14.41L204.64 46.72L204.74 52.18L185.46 77.33Z"
    />
    <path
      id="AR-Z"
      data-title="Santa Cruz"
      class="map-land map-south"
      d="M111.02 614.52L109.62 616.07L108.66 618.21L109.1 619.67L107.94 621.69L105.9 624.06L105.23 625.63L107.14 625.41L108.44 622.13L108.89 621.92L109.25 622.24L107.73 629.42L106.35 638.73L105.95 640.07L104.36 641.98L101 644.83L98.48 646.01L97.16 646.23L96.11 646.16L94.43 644.68L92.94 642.16L91.38 640.76L91.13 641.34L89.57 642.05L86.65 641.89L84.61 642.46L83.95 643.04L85.65 642.85L86.82 642.28L90.01 642.55L91.52 642.21L92.1 642.7L92.89 644.81L95.26 646.5L95.35 647.13L94.44 648.26L90.33 649.81L87.25 651.4L86.27 652.18L85.07 653.71L82.78 657.52L82.14 659.55L81.36 663.83L81.4 667.77L79.53 670.16L77.96 671.58L76.65 673.45L78.52 671.46L80.51 670.21L81.4 672.49L81.6 675.68L84.65 685.72L84.85 686.75L84.54 687.71L83.74 687.43L83.01 687.56L81.63 688.79L80.27 688.32L78.63 687.27L77.22 687.23L75.3 687.81L72.96 689.2L76.98 688.27L79.34 688.78L80.75 689.5L83.75 689L84.18 689.21L85.4 691.44L87.77 697.23L89.66 700.84L91.32 703.48L92.81 705.24L94.73 708.54L95.18 709.83L94.49 711.16L94.11 711.32L94.22 709.87L91.69 709.18L87.1 708.42L84.16 706.25L79.77 704.4L75.64 704.41L65.92 700.08L31.28 700.06L30.39 695.93L27.2 692.58L25.88 691.77L24.42 691.3L22.4 685.99L23.36 685.15L24.05 682.67L24.01 680.13L25.14 678.01L24.4 677.04L23.29 676.34L22.85 675.74L22.5 674.27L23.61 672.15L24.55 672.04L24.85 671.47L25.27 667L24.58 665.46L23.6 664.18L23.53 663.48L24.34 661.24L22.95 660.14L20.76 659.82L19.83 660.13L19.03 661.43L18.08 661.78L17.5 661.55L16.31 660.32H15.78L13.25 661.65L11.84 663.43L10.6 664.34L9.57 664.65L8.68 664.26L8.35 663.71L7.4 659.68L6.52 652.03L5.53 649.8L2.08 646.94L1.83 646.14L2.04 645.23L2.96 643.66L3.03 642.81L1.51 641.1L1.96 638.63L3.46 636.9L2.21 631.71L1 629.92L3.13 623.55L9.08 623.35L9.98 622.33L8.51 621.92L8.34 621.07L10.15 616.82L11.43 614.91L11.86 614.36L13.07 613.7L14.97 613.46L15.98 612.97L19.03 610.13L19.66 608.82V607.57L19.27 603.64L18.72 601.09L18.87 600.52L19.57 599.81L21.94 598.68L24.37 597.11L24.22 592.84L23.83 589.81L22.29 587.92L21.51 587.73L20.33 586.65L19.97 585.42L21.4 581.32L23.69 576.83L24.08 574.41L23.15 573.68L23.32 572.93L23.98 572.29L25.02 571.89L26.14 572.09L26.78 571.89L28.19 570.34L29.35 568.33L31.78 567.14L32.05 566.77L32.33 565.55L32.15 564.67L30.09 561.88L30.76 556.11L31.16 555.68L33.03 555.31L35.34 553.12L35.7 551.8L35.63 548.8L34.64 545.97L34.25 541.17L33.88 540.5L32.65 539.97L31.44 538.62L33.9 537.78L36.09 534.72L109.64 534.74L109.03 536.59L108.98 538.12L109.02 539.35L109.84 543.22L110.56 545.76L111.12 546.81L114.1 551.08L118.42 554.58L123.51 560.68L125.49 562.08L126.72 562.3L129.17 562.18L131.63 562.59L131.97 563.04L134.55 563.45L136.52 563.39L137.36 562.94L138.53 562.75L140.25 563.66L142.41 566.14L143.18 569.75L142.77 575.24L142.23 577.25L140.69 581.11L140.37 581.4L138.31 581.16L137.8 581.31L136.28 582.78L134.19 583.39L133.93 583.93L134.5 583.49L136.04 583.27L138.75 581.9L139.12 581.94L140.07 582.57L142.17 585.89L142.15 586.77L141.45 586.96L139.91 586.24L138.93 586.67L139.31 589.04L138.99 590.2L137.12 590.41L132.26 595.37L129.88 598.48L128.38 598.75L126.3 599.63L123.38 603.17L121.35 603.7L118.62 605.13L117.97 605.9L115.8 610.09L114.56 610.66L112.9 612.04L111.02 614.52Z"
    />
    <path
      id="AR-G"
      data-title="Santiago del Estero"
      class="map-land map-north"
      d="M153.39 122.75L155.15 122.3L156.41 120.1L155.26 117.26L155.32 113.82L157.56 111.06L158.49 110.82L159.81 107.99L162.48 100.23L163.16 100.19L163.93 97.77L165.58 97.74L165.05 92.89L165.85 90.18L165.75 88.57L166.8 84.82L171.01 75.57L175.93 77.19L185.46 77.33L215.94 77.38L216.04 124.6L209.21 169.06L206.11 161L189.15 161.25L185.6 161.04L185.25 159.97L184.4 159.07L183.58 158.67L181.81 158.28L179.61 158.61L177.89 158.49L174.44 156.68L173.75 155.71L173.77 155.05L169.66 153.78L158.58 156.61L156.57 153L155.77 151.04L155.17 146.17L154.82 139.68L154.64 138.89L154.2 138.4L153.21 137.97L153.18 136.89L155.01 134.5L155.15 133.01L155.01 130.09L153.39 122.75Z"
    />
    <path
      id="AR-S"
      data-title="Santa Fe"
      class="map-land map-center"
      d="M241.68 234.76L242.11 235.25L241.89 236.05L239.49 239.33L239.3 240.82L238.35 242.76L236.79 243.1L234.86 241.68L231.69 241.09L230.38 241.47L230.05 242.3L230.23 243.03L216.03 259.07L195.32 259.19L211.96 232.07L212.7 231.02L213.42 231.01L214.27 230.48L215.15 228.87L215.64 225.68L215.48 224.93L213.82 222.3L212.38 217.77L210.19 215.63L209.55 213.31L208.22 212.37L206.85 210.76L206.94 206.13L206.36 201.99L208.4 200.27L213.56 181.02L210.67 179.9L207.36 177.57L207.48 175.26L208.25 175.21L209.21 169.06L216.04 124.6L267.72 124.58L267.1 126.59L266.17 127.2L265.15 127.11L264.44 127.46L263.87 128.25L264.07 133.28L263.6 137.52L261.52 145.74L258.43 148.95L256.27 149.95L254.53 153.8L254.34 158.19L253.17 162.8L253.43 163.68L254.74 165.46L254.81 166.24L252.99 171.47L253.34 172.84L254.57 174.82L254.69 178.08L254.52 179.16L251.76 184.05L247.24 190.98L246.39 191.59L244.39 195.68L240.73 199.92L239.17 201.35L236.33 201.68L235.64 201.89L235.25 202.31L234.18 211.23L234.72 214.74L233.53 218.3L233.59 220.87L234.23 224.86L234.55 226.07L237.32 231.6L240.72 233.39L241.68 234.76Z"
    />
    <path
      id="AR-J"
      data-title="San Juan"
      class="map-land map-center"
      d="M61.46 214.46L60.21 213.91L59.57 209.71L60.33 208.88L61.09 208.76L61.68 207.12L61.58 206.55L60.38 205.36L58.43 205.29L57.57 204.3L55.26 198.61L55.74 193.51L56.45 190.07L57.71 188.71L58.09 189.11L59.33 188.68L60.54 187.34L60.61 186.63L59.95 185.81L59.88 185.28L60.16 183.04L61.01 179.97L62.05 177.48L63.46 174.97L64.95 174.04H65.92L67 173.57L67.72 172.58L68.94 169.77L68.98 168.8L67.25 165.8L67.56 164.1L67.44 159.99L66.56 159.12L66.61 156.58L65.36 152.83V151.1L67.67 147.96L68.82 147.83L69.64 147.07L69.71 145.44L70.9 140.93L70.48 139.32L70.49 138.3L71.3 136.68L71.88 136.37L72.13 132.79L76.01 134.1L77.7 134.38L81.17 137.26L82.01 140.13L85.55 143.7L85.98 147.23L85.74 148.54L85.45 148.96L84.89 149.04L83.59 156.23L83.76 158.02L84.4 158.25L87.25 158.2L89.63 157.54L93.6 158.55L96.42 159.84L101.43 163.97L101.92 165.14L103.91 167.11L108.89 171.11L109.53 171.98L109.96 173.69L113.37 177.09L115.56 180.09L116.58 180.57L117.03 181.14L118.75 184.54L117.89 187.51L119.14 188.48L118.27 194.26L119.41 197.96L120.94 199.5L122.91 200.92L124.36 203.39L125.11 205.24L120.75 205.55L114.62 204.68L113.52 204.85L113.2 205.51L113.03 208.98L113.23 214.9L113.69 216.35L111.59 213.95L109.86 213.35L108.05 213.5L105.02 212.87L103.25 211.31L102.67 210.01L101.71 209.31L98.01 210.16L95.75 209.93L94.09 209.31L93.63 209.65L93.38 211.24L93.04 211.71L91.87 211.83L88.35 210.91L86.27 209.62L85.24 209.37L83.66 209.59L82.99 209.09L81.75 207.29L80.66 206.94L79.46 207.81L76.82 208.89L75.99 208.95L73.16 210.31L72.61 210.99L72.54 212.85L71.92 213.38L68.96 213.6L66.36 214.37L62.95 214.15L61.46 214.46Z"
    />
    <path
      id="AR-D"
      data-title="San Luis"
      class="map-land map-center"
      d="M113.69 216.35L113.23 214.9L113.03 208.98L113.2 205.51L113.52 204.85L114.62 204.68L120.75 205.55L125.11 205.24L126.39 205.44L127.89 206.12L131.76 206.52L134.19 206.33L136.54 205.32L138.18 205.04L139.64 205.72L140.7 205.85L142.69 205.43L144.93 205.55L150.84 209.1L151.94 210.32L152.91 214.8L155.43 214.64L157.48 214.07L158.01 214.56L158.74 219.7L158.59 221.13L156.34 229.24L154.09 233.6L154.91 250.88L154.88 272.78L154.86 294.94L127.16 294.89L126.82 294.21L128.85 284.01L129.16 280.59L129.14 275.55L128.54 271.35L127.61 268.58L124.87 264.07L123.64 259.36L123.42 256L124.59 254.36L124.84 252.71L124.45 251.06L122.82 248.33L121.73 247.57L121.28 246.92L120.57 244.65L117.45 238.51L116.74 233.94L116.94 233.23L116.66 228.78L116.16 227.79L116.63 224.48L115.71 222.33L114.8 218.34L114.22 216.81L113.69 216.35Z"
    />
    <path
      id="AR-V"
      data-title="Tierra del Fuego"
      class="map-land map-south"
      d="M100.91 786.57L99.35 785.89L97.66 785.62L96.51 785.95L96.08 786.5L92.78 786.85L92.07 786.59L90.59 784.72L90.92 719.15L93.94 724.26L96.09 726.66L96.77 727.84L97.36 729.51L98.04 733.06L98.05 733.42L97.76 733.39L96.83 729.98L96.18 729.69L95.44 729.98L92.27 733.66L91.84 735.52L92.27 736.77L93.1 737.81L94.8 738.82L96.99 738.92L98.49 738.45L99.17 738.72L100.45 741.32L101.35 745.66L102.34 747.77L105.69 751.35L109.64 755.07L109.62 756.67L110.03 757.74L115.4 762.43L120.35 765.98L125.38 768.98L128.41 772.98L133.99 776.89L141.85 780.62L143.69 781.06L151.09 779.87L152.51 779.89L153.94 780.49L152.16 785.51L150.13 789.1L149.66 789.19L149.3 789.02L149.21 788.66L147.69 788.31L145.57 789.23L143.69 789.04L143.31 788.44L142.58 788.11L140.39 788L139.53 788.2L138.19 789.96L136.48 790.76L134.99 791.03L131.56 790.96L130.28 793.02L128.37 792.8L126.91 792.33L123.94 789.68L120.05 788.52L111.4 787.54L107.32 787.84L102.14 787.03L100.91 786.57ZM162.28 788.45L162.44 787.25L161.83 786.57L160.97 786.43L160.88 786.08L161.15 785.3L162.02 784.37L162.47 784.31L163.73 785.08L167.71 783.47L168.45 782.84L171.51 783.31L174.14 782.98L176.22 782.4L177.77 782.61L177.93 782.87L176.94 784.61L175.38 785.48L175 784.8L174.36 784.42L172.11 785.68L169.9 786.37L169.76 785.28L168.65 784.73L166.9 786.33L164.11 787.21L162.98 788.27L162.28 788.45ZM90.59 785.23L91.51 786.99L92.01 787.43L91.14 787.95L90.47 787.86L90.59 785.23Z"
    />
    <path
      id="AR-T"
      data-title="Tucumán"
      class="map-land map-north"
      d="M153.39 122.75L152.11 122.98L150.26 121.72L147.31 123.95L146.21 125.62L144.43 123.52L143.78 120.96L142.58 120.23L141.86 120.6L141.33 120.51L139.65 117.65L138.6 112.98L136.57 111.33L134.92 110.88L135.76 108.9L140.51 102.98L141.05 99.06L140.73 98.27L137.92 96.13L134.45 95.17L134.39 92.15L135.43 89.71L135.57 88.76L138.52 89.49L143.4 90.21L143.77 89.73L144.09 86L144.43 85.64L148.45 86.58L150.33 85.62L150.81 85.72L151.52 87.5L157.57 89.69L158.16 89.55L159.96 88.41L161.86 88.66L165.75 88.57L165.85 90.18L165.05 92.89L165.58 97.74L163.93 97.77L163.16 100.19L162.48 100.23L159.81 107.99L158.49 110.82L157.56 111.06L155.32 113.82L155.26 117.26L156.41 120.1L155.15 122.3L153.39 122.75Z"
    />
  </g>
</svg>
