<svg width="48" height="48" viewBox="0 0 48 48" fill="none" xmlns="http://www.w3.org/2000/svg">
<path d="M48 24C48 37.2548 37.2548 48 24 48C10.7452 48 0 37.2548 0 24C0 10.7452 10.7452 0 24 0C37.2548 0 48 10.7452 48 24Z" fill="white"/>
<path d="M19 24C19 21.25 21.1875 19 24 19C26.75 19 29 21.25 29 24C29 26.8125 26.75 29 24 29C21.1875 29 19 26.8125 19 24ZM24 8C25.0625 8 26 8.9375 26 10V12.1875C31 13.0625 34.9375 17 35.8125 22H38C39.0625 22 40 22.9375 40 24C40 25.125 39.0625 26 38 26H35.8125C34.9375 31.0625 31 35 26 35.875V38C26 39.125 25.0625 40 24 40C22.875 40 22 39.125 22 38V35.875C16.9375 35 13 31.0625 12.125 26H10C8.875 26 8 25.125 8 24C8 22.9375 8.875 22 10 22H12.125C13 17 16.9375 13.0625 22 12.1875V10C22 8.9375 22.875 8 24 8ZM16 24C16 28.4375 19.5625 32 24 32C28.375 32 32 28.4375 32 24C32 19.625 28.375 16 24 16C19.5625 16 16 19.625 16 24Z" fill="#7269CB"/>
</svg>
