<svg width="80" height="160" fill="none" xmlns="http://www.w3.org/2000/svg"><path fill="#E6E6E6" d="M0 0h80v160H0z"/><path d="M0 1h9v9H0V1zM10 1h9v9h-9V1zM20 1h9v9h-9V1zM30 1h9v9h-9V1zM40 1h9v9h-9V1zM50 1h9v9h-9V1zM60 1h9v9h-9V1zM70 1h9v9h-9V1zM0 11h9v9H0v-9zM10 11h9v9h-9v-9zM20 11h9v9h-9v-9zM30 11h9v9h-9v-9zM40 11h9v9h-9v-9zM50 11h9v9h-9v-9zM60 11h9v9h-9v-9zM70 11h9v9h-9v-9zM0 21h9v9H0v-9zM10 21h9v9h-9v-9zM20 21h9v9h-9v-9zM30 21h9v9h-9v-9zM40 21h9v9h-9v-9zM50 21h9v9h-9v-9zM60 21h9v9h-9v-9zM70 21h9v9h-9v-9zM0 31h9v9H0v-9zM10 31h9v9h-9v-9zM20 31h9v9h-9v-9zM30 31h9v9h-9v-9zM40 31h9v9h-9v-9zM50 31h9v9h-9v-9zM60 31h9v9h-9v-9zM70 31h9v9h-9v-9zM0 41h9v9H0v-9zM10 41h9v9h-9v-9zM20 41h9v9h-9v-9zM30 41h9v9h-9v-9zM40 41h9v9h-9v-9zM50 41h9v9h-9v-9zM60 41h9v9h-9v-9zM70 41h9v9h-9v-9zM0 51h9v9H0v-9zM10 51h9v9h-9v-9zM20 51h9v9h-9v-9zM30 51h9v9h-9v-9zM40 51h9v9h-9v-9zM50 51h9v9h-9v-9zM60 51h9v9h-9v-9zM70 51h9v9h-9v-9zM0 61h9v9H0v-9zM10 61h9v9h-9v-9zM20 61h9v9h-9v-9zM30 61h9v9h-9v-9zM40 61h9v9h-9v-9zM50 61h9v9h-9v-9zM60 61h9v9h-9v-9zM70 61h9v9h-9v-9zM0 71h9v9H0v-9zM10 71h9v9h-9v-9zM20 71h9v9h-9v-9zM30 71h9v9h-9v-9zM40 71h9v9h-9v-9zM50 71h9v9h-9v-9zM60 71h9v9h-9v-9zM70 71h9v9h-9v-9zM0 81h9v9H0v-9zM10 81h9v9h-9v-9zM20 81h9v9h-9v-9zM30 81h9v9h-9v-9zM40 81h9v9h-9v-9zM50 81h9v9h-9v-9zM60 81h9v9h-9v-9zM70 81h9v9h-9v-9zM0 91h9v9H0v-9zM10 91h9v9h-9v-9zM20 91h9v9h-9v-9zM30 91h9v9h-9v-9zM40 91h9v9h-9v-9zM50 91h9v9h-9v-9zM60 91h9v9h-9v-9zM70 91h9v9h-9v-9zM0 101h9v9H0v-9zM10 101h9v9h-9v-9zM20 101h9v9h-9v-9zM30 101h9v9h-9v-9zM40 101h9v9h-9v-9zM50 101h9v9h-9v-9zM60 101h9v9h-9v-9zM70 101h9v9h-9v-9zM0 111h9v9H0v-9zM10 111h9v9h-9v-9zM20 111h9v9h-9v-9zM30 111h9v9h-9v-9zM40 111h9v9h-9v-9zM50 111h9v9h-9v-9zM60 111h9v9h-9v-9zM70 111h9v9h-9v-9zM0 121h9v9H0v-9zM10 121h9v9h-9v-9zM20 121h9v9h-9v-9zM30 121h9v9h-9v-9zM40 121h9v9h-9v-9zM50 121h9v9h-9v-9zM60 121h9v9h-9v-9zM70 121h9v9h-9v-9zM0 131h9v9H0v-9zM10 131h9v9h-9v-9zM20 131h9v9h-9v-9zM30 131h9v9h-9v-9zM40 131h9v9h-9v-9zM50 131h9v9h-9v-9zM60 131h9v9h-9v-9zM70 131h9v9h-9v-9zM0 141h9v9H0v-9zM10 141h9v9h-9v-9zM20 141h9v9h-9v-9zM30 141h9v9h-9v-9zM40 141h9v9h-9v-9zM50 141h9v9h-9v-9zM60 141h9v9h-9v-9zM70 141h9v9h-9v-9zM0 151h9v9H0v-9zM10 151h9v9h-9v-9zM20 151h9v9h-9v-9zM30 151h9v9h-9v-9zM40 151h9v9h-9v-9zM50 151h9v9h-9v-9zM60 151h9v9h-9v-9zM70 151h9v9h-9v-9z" fill="#F2F2F2"/><path d="M0 .5h80m-80 80h80M79.5 0v160" stroke="#DDD"/></svg>